<?xml version="1.0" standalone="no"?>
<!DOCTYPE svg PUBLIC "-//W3C//DTD SVG 20010904//EN"
 "http://www.w3.org/TR/2001/REC-SVG-20010904/DTD/svg10.dtd">
<svg version="1.0" xmlns="http://www.w3.org/2000/svg"
 width="190.000000pt" height="218.000000pt" viewBox="0 0 190.000000 218.000000"
 preserveAspectRatio="xMidYMid meet">

<g transform="translate(0.000000,218.000000) scale(0.100000,-0.100000)"
fill="#000000" stroke="none">
<path d="M1179 1986 c-31 -12 -73 -33 -94 -46 l-38 -23 -136 14 c-282 29 -318
15 -147 -56 64 -26 116 -51 116 -54 0 -4 -31 -26 -70 -49 -69 -43 -69 -43
-140 -36 -52 5 -74 3 -86 -7 -14 -11 -8 -17 48 -45 34 -18 69 -33 75 -34 7 0
68 31 135 69 l122 69 37 -25 c51 -33 73 -21 95 53 14 50 20 57 66 82 95 52
138 82 138 97 0 22 -55 19 -121 -9z"/>
<path d="M511 1581 c-99 -120 -145 -248 -145 -406 1 -82 6 -114 28 -180 32
-94 74 -169 127 -231 l39 -45 0 -243 c0 -264 -1 -258 58 -271 22 -5 32 -12 32
-26 0 -16 7 -19 55 -19 48 0 55 2 55 20 0 19 7 20 250 20 243 0 250 -1 250
-20 0 -18 7 -20 55 -20 48 0 55 3 55 20 0 14 9 21 35 26 64 12 65 18 65 314 0
199 3 269 13 279 10 11 10 13 0 7 -10 -6 -13 38 -13 202 0 197 -1 211 -21 236
-15 19 -30 26 -55 26 l-34 0 0 -283 c0 -262 -1 -285 -18 -300 -10 -10 -22 -17
-25 -17 -4 0 -7 135 -7 300 l0 300 -35 0 -35 0 0 50 c0 57 -13 91 -43 109 -26
17 -208 26 -302 16 -93 -10 -115 -31 -115 -115 l0 -60 -35 0 -35 0 0 -295 c0
-162 -4 -295 -8 -295 -5 0 -16 8 -25 18 -15 16 -17 52 -17 295 l0 277 -33 0
c-69 0 -69 -1 -68 -245 l1 -218 -20 18 c-28 26 -86 147 -105 220 -42 164 5
364 116 497 43 52 45 56 26 83 -13 17 -18 13 -66 -44z m849 -1146 l0 -235 -25
0 -25 0 0 217 c0 187 2 219 17 235 9 10 20 18 25 18 4 0 8 -106 8 -235z m-669
195 c18 -10 19 -23 19 -220 l0 -210 -25 0 -25 0 0 220 c0 121 3 220 6 220 3 0
14 -5 25 -10z"/>
</g>
</svg>
